<svg xmlns="http://www.w3.org/2000/svg" xmlns:xlink="http://www.w3.org/1999/xlink" version="1.1" baseProfile="full" viewBox="0 0 200 200" width="200" height="200">
<g fill="black">
<path d="M 58.9 157.9 L 53.2 157.4 L 47.8 156.1 L 42.8 154 L 38.2 151.2 L 34.1 147.8 L 30.7 143.7 L 27.9 139.1 L 25.8 134.1 L 24.5 128.7 L 24.1 123 L 24.5 117.2 L 25.8 111.8 L 27.9 106.8 L 30.7 102.2 L 34.1 98.1 L 38.2 94.7 L 42.8 91.9 L 47.8 89.8 L 53.2 88.5 L 54 88.4 L 67 83.9 L 79.1 79.8 L 91.2 75.6 L 127.5 63.3 L 151.9 55.3 L 164.1 51.2 L 164.2 51.4 L 166.1 50.6 L 168.3 49.9 L 170.5 49.1 L 172.7 48.4 L 175 47.7 L 175.3 47.4 L 175.5 47.6 L 177.4 47.2 L 179.5 46.2 L 180.4 47.7 L 178.6 49.1 L 177 51 L 174.2 54 L 173.8 54.8 L 172.9 56.4 L 172.1 58.1 L 170.1 61.3 L 167.9 64.5 L 167.4 63.9 L 160.8 70.4 L 151.4 79.6 L 142.1 88.8 L 132.7 98 L 114.1 116.4 L 104.9 125.6 L 95.6 134.8 L 88 142.4 L 87.2 143.7 L 83.8 147.8 L 79.7 151.2 L 78.4 152 L 77.2 153.2 L 76.9 152.9 L 75.1 154 L 70.1 156.1 L 64.7 157.4 L 59 157.9 Z M 93.6 119.9 L 96.4 117.1 L 133.6 80.3 L 143.4 70.7 L 131.3 74.7 L 95 87 L 83 91.1 L 77.1 93.1 L 79.7 94.7 L 83.8 98.1 L 87.2 102.2 L 90 106.8 L 92.1 111.8 L 93.4 117.2 Z M 59 151.9 L 59 145.9 L 62.8 145.6 L 66.4 144.7 L 69.7 143.3 L 70.8 142.6 L 78.6 134.8 L 79.3 133.7 L 80.7 130.4 L 81.6 126.8 L 81.9 123 L 81.6 119.1 L 80.7 115.5 L 79.3 112.2 L 77.5 109.3 L 75.3 106.6 L 72.6 104.4 L 69.7 102.6 L 66.4 101.2 L 62.8 100.3 L 59 100.1 L 56.5 100.2 L 46.9 103.6 L 46.8 103.4 L 45.3 104.4 L 42.6 106.6 L 40.4 109.3 L 38.6 112.2 L 37.2 115.5 L 36.3 119.1 L 36.1 123 L 36.3 126.8 L 37.2 130.4 L 38.6 133.7 L 40.4 136.6 L 42.6 139.3 L 45.3 141.5 L 48.2 143.3 L 51.5 144.7 L 55.1 145.6 L 58.9 145.9 Z " />
</g>
</svg>
