<?xml version="1.0" encoding="UTF-8" standalone="no"?>
<svg width="837px" height="636px" viewBox="0 0 837 636" version="1.1" xmlns="http://www.w3.org/2000/svg" xmlns:xlink="http://www.w3.org/1999/xlink" xmlns:sketch="http://www.bohemiancoding.com/sketch/ns">
    <!-- Generator: Sketch 3.2.2 (9983) - http://www.bohemiancoding.com/sketch -->
    <title>path16</title>
    <desc>Created with Sketch.</desc>
    <defs></defs>
    <g id="Page-1" stroke="none" stroke-width="1" fill="none" fill-rule="evenodd" sketch:type="MSPage">
        <g id="logo" sketch:type="MSLayerGroup" transform="translate(-108.000000, -55.000000)" fill="#33B1FA">
            <g id="g10" transform="translate(526.500000, 372.500000) scale(1, -1) translate(-526.500000, -372.500000) " sketch:type="MSShapeGroup">
                <g id="g12">
                    <path d="M734.82375,473.415 L734.8225,473.415 L734.08,473.40875 C734.14625,475.56875 734.19125,477.735 734.19125,479.91125 C734.19125,594.99 640.035,689.145 524.95625,689.145 C409.8775,689.145 315.72375,594.99 315.72375,479.91125 C315.72375,477.73 315.76875,475.55875 315.83625,473.3925 C201.5325,472.4675 108.305125,378.69125 108.305125,264.1825 L108.305125,264.18125 C108.305125,149.10375 202.45875,54.951125 317.53875,54.951125 L734.82375,54.951125 C849.9025,54.951125 944.0575,149.10375 944.0575,264.18125 L944.0575,264.1825 C944.0575,379.26125 849.9025,473.415 734.82375,473.415 L734.82375,473.415 Z M561.5375,90.8965 L734.82375,90.8965 C830.06125,90.8965 908.11,168.945 908.11,264.18125 C908.11,359.4175 830.0625,437.47 734.82375,437.47 C639.5875,437.47 561.5375,359.42125 561.5375,264.18375 L561.5375,90.8965 L561.5375,90.8965 Z M597.48375,126.84375 L734.82375,126.84375 C810.21875,126.84375 872.1625,188.78625 872.1625,264.18125 C872.1625,339.57625 810.21875,401.52125 734.82375,401.52125 C659.43,401.52125 597.48375,339.58 597.48375,264.18375 L597.48375,126.84375 L597.48375,126.84375 Z M490.82625,90.8965 L490.82625,264.18375 C490.82625,359.42125 412.775,437.47 317.5375,437.47 C222.29875,437.47 144.2525,359.4175 144.2525,264.18125 C144.2525,168.945 222.30125,90.8965 317.5375,90.8965 L490.82625,90.8965 L490.82625,90.8965 Z M454.8775,126.84375 L454.8775,264.18375 C454.8775,339.58 392.93375,401.52125 317.5375,401.52125 C242.1425,401.52125 180.19875,339.57625 180.19875,264.18125 C180.19875,188.78625 242.1425,126.84375 317.5375,126.84375 L454.8775,126.84375 L454.8775,126.84375 Z M524.9575,653.19875 C429.72125,653.19875 351.67125,575.15125 351.67125,479.9125 C351.67125,476.77625 351.76125,473.66 351.92875,470.56375 C364.69625,468.43 377.0825,465.13 388.97375,460.77625 C388.0875,467.035 387.6175,473.42375 387.6175,479.9125 C387.6175,555.31 449.5625,617.25125 524.9575,617.25125 C600.35375,617.25125 662.29625,555.305 662.29625,479.91 C662.29625,473.08125 661.78125,466.365 660.80125,459.795 C672.71875,464.34 685.1425,467.82875 697.95875,470.135 C698.14125,473.37125 698.2425,476.62875 698.2425,479.91 C698.2425,575.1475 620.19625,653.19875 524.9575,653.19875 L524.9575,653.19875 Z" id="path16"></path>
                </g>
            </g>
        </g>
    </g>
</svg>